<svg viewBox="0 0 800 800" xmlns="http://www.w3.org/2000/svg"><path d="M582.1243129361271,199.33414869837011 L582.1243149539104,199.3303294047769 M52.59819430656307,504.88644455660983 L52.59819044071452,504.88262186611075 M582.1243129361271,199.33414869837011 L52.59819430656307,504.88644455660983 M582.1243149539104,199.3303294047769 L52.59819044071452,504.88262186611075 M52.443491560564894,581.4444491678847 L52.44348769127549,581.4406256281602 M52.59819430656307,504.88644455660983 L39.501065284358674,514.3603614756739 M39.501065284358674,514.3603614756739 L30.376672382519132,525.2792343354386 M30.376672382519132,525.2792343354386 L25.6831657886583,537.095986827326 M25.6831657886583,537.095986827326 L25.656798478703422,549.2182998769392 M25.656798478703422,549.2182998769392 L30.29979235719702,561.038349366267 M30.29979235719702,561.038349366267 L39.38028025823843,571.9631399135609 M39.38028025823843,571.9631399135609 L52.443491560564894,581.4444491678847 M52.59819044071452,504.88262186611075 L39.501061272676566,514.3565386800436 M39.501061272676566,514.3565386800436 L30.3766682691263,525.2754114186567 M30.3766682691263,525.2754114186567 L25.683161622791317,537.0921637794477 M25.683161622791317,537.0921637794477 L25.6567943122497,549.2144766945933 M25.6567943122497,549.2144766945933 L30.299788242094394,561.0345260528245 M30.299788242094394,561.0345260528245 L39.38027624387007,571.9593164789673 M39.38027624387007,571.9593164789673 L52.44348769127549,581.4406256281602 M85.53880954518979,600.5945957966214 L85.5388060436253,600.5907720445908 M52.443491560564894,581.4444491678847 L85.53880954518979,600.5945957966214 M52.44348769127549,581.4406256281602 L85.5388060436253,600.5907720445908 M218.0748702760451,600.5945957966214 L218.07486824882355,600.5907720445908 M85.53880954518979,600.5945957966214 L101.93320557295567,608.158118141325 M101.93320557295567,608.158118141325 L120.8331961557368,613.4219367931535 M120.8331961557368,613.4219367931535 L141.2905050807408,616.1216383891516 M141.2905050807408,616.1216383891516 L162.27836386432315,616.1216498068574 M162.27836386432315,616.1216498068574 L182.74345038009076,613.4219299427448 M182.74345038009076,613.4219299427448 L201.65864814535126,608.1581135746652 M201.65864814535126,608.1581135746652 L218.0748702760451,600.5945957966214 M85.5388060436253,600.5907720445908 L101.93320225361805,608.1542943054552 M101.93320225361805,608.1542943054552 L120.83319304655856,613.4181128989404 M120.83319304655856,613.4181128989404 L141.29050219910323,616.117814465017 M141.29050219910323,616.117814465017 L162.2783612161775,616.1178258827225 M162.2783612161775,616.1178258827225 L182.743447959659,613.4181060485319 M182.743447959659,613.4181060485319 L201.65864593541713,608.1542897387955 M201.65864593541713,608.1542897387955 L218.07486824882355,600.5907720445908 M747.60098932509,294.7026084277348 L747.6009931815003,294.6987880726099 M218.0748702760451,600.5945957966214 L747.60098932509,294.7026084277348 M218.07486824882355,600.5907720445908 L747.6009931815003,294.6987880726099 M747.4468013965505,218.39937238653914 L747.4468052495373,218.39555288063977 M747.60098932509,294.7026084277348 L760.6424670854274,285.2528616134555 M760.6424670854274,285.2528616134555 L769.7078660046695,274.3644245117392 M769.7078660046695,274.3644245117392 L774.3432015351618,262.58372142854927 M774.3432015351618,262.58372142854927 L774.3168825828662,250.5017488260967 M774.3168825828662,250.5017488260967 L769.6312654517671,238.72430811953896 M769.6312654517671,238.72430811953896 L760.5220997607039,227.84177282347613 M760.5220997607039,227.84177282347613 L747.4468013965505,218.39937238653914 M747.6009931815003,294.6987880726099 L760.6424710864344,285.2490413634619 M760.6424710864344,285.2490413634619 L769.7078701060764,274.3606043828968 M769.7078701060764,274.3606043828968 L774.3432056877502,262.5799014308035 M774.3432056877502,262.5799014308035 L774.3168867348703,250.49792896281858 M774.3168867348703,250.49792896281858 L769.6312695514731,238.72048838735736 M769.6312695514731,238.72048838735736 L760.5221037590383,227.83795321244565 M760.5221037590383,227.83795321244565 L747.4468052495373,218.39555288063977 M714.3514832307859,199.33414869837011 L714.3514867160479,199.3303294047769 M747.4468013965505,218.39937238653914 L714.3514832307859,199.33414869837011 M747.4468052495373,218.39555288063977 L714.3514867160479,199.3303294047769 M714.3514832307859,199.33414869837011 L697.9691741109468,191.80650119578348 M697.9691741109468,191.80650119578348 L679.0978611945166,186.56842917756094 M679.0978611945166,186.56842917756094 L658.6831754443502,183.8821806750853 M658.6831754443502,183.8821806750853 L637.7480028964022,183.8821693146317 M637.7480028964022,183.8821693146317 L617.3410874633851,186.56843599404618 M617.3410874633851,186.56843599404618 L598.4848837336416,191.8065057403841 M598.4848837336416,191.8065057403841 L582.1243129361271,199.33414869837011 M714.3514867160479,199.3303294047769 L697.9691774142506,191.80268198602926 M697.9691774142506,191.80268198602926 L679.0978642882981,186.56461002615 M679.0978642882981,186.56461002615 L658.6831783115382,183.878361553596 M658.6831783115382,183.878361553596 L637.7480055312693,183.87835019314264 M637.7480055312693,183.87835019314264 L617.3410898718307,186.56461684263525 M617.3410898718307,186.56461684263525 L598.4848859329007,191.80268653062996 M598.4848859329007,191.80268653062996 L582.1243149539104,199.3303294047769" stroke="black"  stroke-width="4"  fill="red"/></svg>